<?xml version="1.0" standalone="no"?>
<!DOCTYPE svg PUBLIC "-//W3C//DTD SVG 20010904//EN"
 "http://www.w3.org/TR/2001/REC-SVG-20010904/DTD/svg10.dtd">
<svg version="1.0" xmlns="http://www.w3.org/2000/svg"
 width="225.000000pt" height="225.000000pt" viewBox="0 0 225.000000 225.000000"
 preserveAspectRatio="xMidYMid meet">
<metadata>
Created by potrace 1.11, written by Peter Selinger 2001-2013
</metadata>
<g transform="translate(0.000000,225.000000) scale(0.100000,-0.100000)"
fill="#000000" stroke="none">
<path d="M380 2006 c0 -2 -18 -91 -40 -197 -61 -295 -55 -395 27 -470 15 -15
42 -34 58 -42 20 -11 24 -16 13 -17 -16 0 -18 -12 -18 -105 l0 -105 715 0 715
0 0 105 0 105 -87 1 -88 1 135 45 c74 25 136 47 138 48 5 5 -9 90 -17 104 -6
8 -27 3 -79 -19 -115 -49 -106 -74 -100 260 l5 290 -58 0 -59 0 0 -365 0 -365
-207 1 -208 1 129 43 c71 25 131 46 133 48 3 4 -16 108 -21 114 -1 2 -34 -11
-72 -27 -114 -49 -104 -73 -104 260 l0 290 -55 0 -55 0 0 -365 0 -365 -272 0
-273 0 53 25 c55 26 75 26 65 0 -4 -12 5 -15 41 -15 25 0 46 1 46 3 0 2 29
158 65 348 36 189 65 350 65 357 0 8 -16 12 -48 12 l-48 0 -48 -227 c-26 -126
-57 -250 -70 -278 -59 -130 -197 -182 -290 -111 -82 62 -88 148 -32 411 21 94
39 178 42 188 5 15 -2 17 -45 17 -28 0 -51 -2 -51 -4z m124 -776 c-22 -8 -41
-40 -24 -40 5 0 16 7 24 16 9 8 16 11 16 5 0 -6 3 -10 8 -10 34 6 40 -7 16
-37 -14 -18 -15 -18 -4 6 10 23 9 23 -16 -5 -25 -27 -25 -28 -11 -4 9 15 14
29 11 32 -8 8 -74 -33 -74 -46 0 -6 -3 -8 -6 -4 -4 3 2 26 12 51 16 38 24 46
44 45 24 0 24 -1 4 -9z m404 -42 c-15 -28 -31 -44 -46 -46 -27 -4 -28 9 -1 39
19 23 20 23 10 2 -15 -30 -14 -38 4 -23 8 7 15 17 15 22 0 13 32 59 37 54 3
-2 -6 -24 -19 -48z m442 12 c-24 -48 -24 -47 -2 -53 13 -4 11 -5 -5 -6 -29 -1
-30 22 -3 67 28 45 35 40 10 -8z m-125 -10 c-9 -18 -14 -34 -11 -37 3 -3 10 5
15 19 11 28 37 43 47 27 3 -6 -1 -18 -10 -27 -16 -16 -17 -16 -10 2 5 13 4 17
-4 12 -7 -4 -12 -15 -12 -24 0 -13 -9 -18 -31 -20 -27 -2 -30 0 -20 12 7 9 11
21 9 28 -3 8 -11 1 -21 -17 -9 -16 -16 -24 -17 -17 0 24 20 52 39 52 11 0 22
7 25 16 4 9 9 14 12 11 3 -3 -2 -19 -11 -37z m-555 -6 c0 -10 5 -9 20 6 21 21
45 18 37 -4 -3 -6 2 -18 11 -26 14 -12 15 -11 10 7 -3 11 -2 27 3 34 6 10 9 3
9 -21 l0 -34 29 32 c37 39 64 35 48 -7 -9 -26 -14 -28 -68 -28 -47 0 -56 3
-51 15 3 10 1 13 -6 8 -8 -5 -10 -1 -5 11 4 12 3 15 -5 8 -5 -5 -12 -19 -15
-30 -3 -17 -6 -15 -19 14 -15 33 -16 34 -27 12 -7 -12 -9 -27 -6 -34 4 -6 -3
0 -15 16 -22 28 -40 28 -40 0 0 -13 2 -13 17 -2 14 12 16 12 11 -1 -8 -24 -44
-19 -40 5 6 31 20 41 41 28 15 -10 22 -9 31 2 14 17 30 11 30 -11z m350 11 c0
-2 -7 -16 -15 -31 -8 -16 -15 -22 -15 -14 0 8 -3 25 -6 37 -5 18 -3 21 15 16
12 -3 21 -7 21 -8z m50 -11 c0 -8 5 -14 11 -14 5 0 7 -4 4 -10 -3 -5 -1 -10 6
-10 6 0 9 8 6 19 -2 10 -1 25 4 32 6 10 9 3 9 -19 0 -23 4 -31 12 -26 7 4 8 3
4 -4 -10 -17 -44 -15 -54 3 -5 10 -15 13 -25 9 -9 -3 -15 -9 -12 -13 2 -4 -2
-8 -9 -8 -16 0 -10 23 12 49 16 19 32 15 32 -8z m350 -2 c1 -15 2 -15 15 2 11
14 15 16 15 5 0 -8 -7 -23 -15 -33 -13 -17 -15 -18 -15 -3 0 19 -2 20 -24 11
-9 -3 -13 -11 -9 -17 3 -6 1 -7 -5 -3 -17 10 -15 26 4 47 19 21 34 16 34 -9z
m257 -11 c-7 -20 -17 -28 -39 -29 -29 -2 -29 -2 -14 27 16 30 33 41 52 34 9
-3 9 -12 1 -32z m93 13 c0 -8 5 -14 11 -14 5 0 7 -4 4 -10 -3 -5 -1 -10 6 -10
6 0 9 8 6 19 -2 10 -1 25 4 32 6 10 9 3 9 -19 0 -23 4 -31 12 -26 7 4 8 3 4
-4 -10 -17 -44 -15 -54 3 -5 10 -15 13 -25 9 -9 -3 -14 -10 -11 -15 3 -5 -1
-6 -9 -3 -9 3 -25 -8 -41 -28 -15 -20 -26 -27 -26 -18 0 13 -1 13 -11 0 -9
-13 -10 -13 -6 0 2 8 9 14 15 13 6 -1 15 10 20 25 6 15 17 36 27 47 16 20 16
20 6 -2 -18 -37 -12 -39 15 -5 25 32 44 35 44 6z m-805 6 c11 -18 -15 -50 -38
-48 -22 2 -23 4 -9 30 14 28 36 37 47 18z m514 -2 c0 -7 -4 -22 -9 -33 -7 -16
-9 -14 -7 13 1 17 5 32 9 32 4 0 8 -6 7 -12z m67 -13 c-8 -33 0 -32 18 3 16
28 20 22 10 -15 -4 -14 -14 -23 -25 -23 -11 0 -24 -11 -31 -25 -6 -14 -17 -25
-25 -25 -18 0 -17 6 11 43 33 46 39 57 26 57 -6 0 -15 -11 -22 -25 -6 -13 -15
-22 -19 -19 -15 9 22 54 43 54 17 0 19 -5 14 -25z m61 -8 c-8 -15 -17 -24 -20
-21 -3 4 1 17 10 30 20 32 27 25 10 -9z"/>
<path d="M813 1188 c-19 -25 -24 -38 -14 -38 11 0 35 39 28 46 -2 3 -9 -1 -14
-8z"/>
<path d="M1046 1183 c-6 -14 -5 -15 5 -6 7 7 10 15 7 18 -3 3 -9 -2 -12 -12z"/>
<path d="M1396 1183 c-6 -14 -5 -15 5 -6 7 7 10 15 7 18 -3 3 -9 -2 -12 -12z"/>
<path d="M1653 1188 c-19 -25 -24 -38 -14 -38 11 0 35 39 28 46 -2 3 -9 -1
-14 -8z"/>
<path d="M1746 1183 c-6 -14 -5 -15 5 -6 7 7 10 15 7 18 -3 3 -9 -2 -12 -12z"/>
<path d="M934 1175 c-9 -22 1 -29 15 -11 8 10 9 16 1 21 -5 3 -13 -1 -16 -10z"/>
<path d="M260 1045 c0 -13 103 -15 865 -15 762 0 865 2 865 15 0 13 -103 15
-865 15 -762 0 -865 -2 -865 -15z"/>
<path d="M760 795 c0 -8 7 -15 15 -15 8 0 15 7 15 15 0 8 -7 15 -15 15 -8 0
-15 -7 -15 -15z"/>
<path d="M1340 795 c0 -8 8 -15 18 -15 10 0 19 7 19 15 0 8 -9 15 -19 15 -10
0 -18 -7 -18 -15z"/>
<path d="M1510 775 c0 -33 -1 -34 -30 -28 -22 4 -36 0 -50 -12 -25 -23 -26
-76 -2 -98 22 -20 63 -22 80 -5 9 9 12 9 12 0 0 -7 5 -12 10 -12 6 0 10 38 10
95 0 78 -3 95 -15 95 -10 0 -15 -11 -15 -35z m-7 -66 c5 -9 7 -28 3 -42 -8
-34 -42 -36 -57 -3 -22 47 27 88 54 45z"/>
<path d="M1830 768 c0 -33 -3 -39 -12 -30 -32 32 -88 1 -88 -49 0 -56 14 -69
75 -68 l55 2 0 93 c0 77 -3 94 -15 94 -11 0 -15 -11 -15 -42z m-12 -50 c28
-28 2 -88 -33 -74 -22 8 -29 34 -17 62 13 26 31 31 50 12z"/>
<path d="M402 725 c4 -87 19 -109 73 -109 54 0 69 22 73 109 4 64 2 75 -12 75
-13 0 -16 -11 -16 -54 0 -79 -13 -108 -48 -104 -27 3 -27 4 -30 81 -3 70 -5
77 -24 77 -19 0 -20 -5 -16 -75z"/>
<path d="M590 685 c0 -51 3 -65 15 -65 11 0 15 11 15 39 0 40 22 75 44 68 6
-2 12 -27 14 -55 3 -44 6 -52 23 -52 16 0 19 7 19 39 0 63 -15 91 -48 91 -15
0 -33 -5 -40 -12 -9 -9 -12 -9 -12 0 0 7 -7 12 -15 12 -12 0 -15 -14 -15 -65z"/>
<path d="M760 685 c0 -51 3 -65 15 -65 12 0 15 14 15 65 0 51 -3 65 -15 65
-12 0 -15 -14 -15 -65z"/>
<path d="M821 738 c0 -7 8 -35 18 -63 14 -40 22 -50 40 -50 19 0 27 11 46 63
21 58 21 62 5 62 -13 0 -21 -13 -30 -51 -14 -56 -21 -55 -39 9 -7 25 -18 42
-26 42 -8 0 -15 -6 -14 -12z"/>
<path d="M976 728 c-41 -58 11 -129 80 -112 35 9 29 24 -10 24 -33 0 -62 20
-49 33 3 4 26 7 50 7 47 0 53 11 27 48 -10 15 -25 22 -49 22 -24 0 -39 -7 -49
-22z m74 -2 c0 -2 3 -11 6 -20 5 -12 -1 -16 -23 -16 -36 0 -46 9 -32 27 10 12
49 19 49 9z"/>
<path d="M1120 685 c0 -50 3 -65 14 -65 11 0 16 14 18 48 3 40 6 47 26 50 12
2 22 10 22 18 0 17 -36 19 -43 2 -4 -10 -6 -10 -6 0 -1 6 -8 12 -16 12 -12 0
-15 -14 -15 -65z"/>
<path d="M1233 743 c-25 -10 -14 -52 17 -68 17 -9 30 -20 30 -25 0 -6 -13 -10
-30 -10 -16 0 -30 -4 -30 -10 0 -14 64 -12 78 2 21 21 13 47 -18 63 -37 19
-39 35 -5 35 14 0 25 5 25 10 0 10 -45 12 -67 3z"/>
<path d="M1340 685 c0 -55 3 -65 18 -65 14 0 17 10 17 65 0 55 -3 65 -17 65
-15 0 -18 -10 -18 -65z"/>
<path d="M1597 743 c-14 -13 -6 -19 21 -15 18 2 33 -2 41 -12 12 -14 10 -16
-13 -16 -41 0 -66 -17 -66 -45 0 -30 32 -50 58 -36 10 6 29 7 42 4 22 -6 23
-5 18 51 -3 34 -11 61 -19 67 -16 10 -73 12 -82 2z m63 -83 c-12 -22 -50 -27
-50 -7 0 20 10 27 37 27 21 0 22 -3 13 -20z"/>
<path d="M408 450 c4 -43 2 -46 -27 -28 -27 17 -67 -3 -75 -38 -15 -59 40
-116 81 -83 13 11 17 11 20 2 3 -7 11 -13 19 -13 11 0 14 20 14 100 0 89 -2
100 -18 100 -14 0 -17 -7 -14 -40z m-19 -54 c7 -8 11 -27 9 -43 -2 -22 -8 -28
-28 -28 -20 0 -26 6 -28 28 -3 27 12 57 28 57 4 0 13 -6 19 -14z"/>
<path d="M710 385 l0 -95 50 0 c38 0 50 4 50 15 0 10 -11 15 -35 15 l-35 0 0
80 c0 64 -3 80 -15 80 -12 0 -15 -17 -15 -95z"/>
<path d="M1070 385 l0 -95 50 0 c38 0 50 4 50 15 0 10 -11 15 -35 15 l-35 0 0
80 c0 64 -3 80 -15 80 -12 0 -15 -17 -15 -95z"/>
<path d="M490 410 c-26 -26 -26 -74 1 -101 22 -22 89 -24 97 -2 2 9 -5 11 -26
7 -20 -4 -34 -1 -47 13 -18 17 -17 18 33 21 51 3 52 4 46 30 -12 52 -67 69
-104 32z m68 -12 c20 -20 14 -28 -23 -28 -19 0 -35 4 -35 8 0 12 22 32 35 32
6 0 16 -5 23 -12z"/>
<path d="M857 423 c-13 -13 -7 -21 13 -16 22 6 53 -14 44 -28 -3 -5 -18 -9
-33 -9 -47 0 -69 -43 -35 -71 12 -10 22 -10 45 -2 16 6 29 7 29 2 0 -5 7 -9
15 -9 21 0 20 88 -1 118 -15 21 -62 31 -77 15z m63 -69 c0 -16 -23 -44 -36
-44 -20 0 -30 30 -13 41 16 10 49 12 49 3z"/>
<path d="M1217 423 c-11 -10 -8 -25 4 -18 16 10 61 -4 56 -18 -2 -7 -19 -14
-37 -17 -40 -6 -60 -32 -44 -57 14 -22 50 -29 70 -13 10 9 14 9 14 1 0 -6 7
-11 15 -11 22 0 21 103 -1 124 -15 16 -65 22 -77 9z m61 -79 c-5 -25 -35 -41
-49 -27 -9 9 -9 16 1 28 17 21 52 20 48 -1z"/>
<path d="M1367 418 c-9 -7 -20 -27 -23 -45 -5 -26 -1 -37 19 -57 22 -22 30
-24 53 -16 33 13 39 8 24 -20 -9 -18 -19 -21 -46 -18 -24 3 -34 0 -34 -10 0
-9 13 -12 47 -10 60 4 73 25 73 121 0 53 -3 67 -15 67 -8 0 -15 -5 -15 -10 0
-7 -6 -7 -19 0 -26 13 -44 13 -64 -2z m62 -22 c7 -8 11 -27 9 -43 -2 -22 -8
-28 -28 -28 -20 0 -26 6 -28 28 -3 27 12 57 28 57 4 0 13 -6 19 -14z"/>
<path d="M1520 371 c0 -71 16 -91 61 -74 16 6 29 7 29 2 0 -5 7 -9 15 -9 12 0
15 14 15 70 0 56 -3 70 -15 70 -11 0 -15 -12 -15 -44 0 -46 -19 -72 -45 -62
-11 4 -15 20 -15 56 0 38 -4 50 -15 50 -12 0 -15 -13 -15 -59z"/>
<path d="M1680 359 c0 -62 2 -70 18 -67 13 2 18 16 22 53 4 39 9 51 24 53 25
5 36 -14 36 -65 0 -32 4 -43 15 -43 11 0 15 13 15 54 0 75 -30 103 -81 76 -13
-7 -19 -7 -19 0 0 5 -7 10 -15 10 -12 0 -15 -15 -15 -71z"/>
<path d="M1867 423 c-13 -13 -7 -21 13 -16 22 6 53 -14 44 -28 -3 -5 -18 -9
-33 -9 -47 0 -69 -43 -35 -71 12 -10 22 -10 45 -2 16 6 29 7 29 2 0 -5 7 -9
15 -9 21 0 20 88 -1 118 -15 21 -62 31 -77 15z m63 -77 c0 -20 -27 -39 -45
-32 -18 7 -20 32 -2 39 24 10 47 7 47 -7z"/>
</g>
</svg>
